# xmcd
#
# Track frame offsets: 
#        150
#        17816
#        40142
#        61455
#        84353
#        102459
#        118432
#        131486
#        150238
#        166610
#        234861
#
# Disc length: 3395 seconds
#
# Revision: 3
# Processed by: cddbd v1.5.2PL0 Copyright (c) Steve Scherf et al.
# Submitted via: ExactAudioCopy v0.99pb5
#
DISCID=7f0d410b
DTITLE=Harris Newman - Non-Sequiturs
DYEAR=2003
DGENRE=Acoustic
TTITLE0=Around About Thirty-Six
TTITLE1=Bitten
TTITLE2=The Bullheaded Stranger
TTITLE3=Sometimes A Bad Attitude Is All It Takes
TTITLE4=Feral Blues
TTITLE5=The Pyramids
TTITLE6=Trick Question
TTITLE7=God Is In The Details
TTITLE8=I Fought The Lottery
TTITLE9=Forest For The Trees
TTITLE10=Throwing The Goat
EXTD=
EXTT0=
EXTT1=
EXTT2=
EXTT3=
EXTT4=
EXTT5=
EXTT6=
EXTT7=
EXTT8=
EXTT9=
EXTT10=
PLAYORDER=
